<svg width="104" height="128" viewBox="0 0 104 128" fill="none" xmlns="http://www.w3.org/2000/svg">
<g clip-path="url(#clip0_564_424)">
<path d="M52.4 0C24.76 0 0 38.656 0 74C0 109.344 23.68 128 52.4 128C81.12 128 104 109.344 104 74C104 34.688 84.32 0 52.4 0ZM86.736 111.968C78.128 120.368 66.256 124.8 52.4 124.8C38.544 124.8 26.328 120.232 17.64 111.944C8.192 102.92 3.2 89.8 3.2 74C3.2 58.2 8.912 39.52 18.472 25.552C28.208 11.344 40.568 3.2 52.4 3.2C70.128 3.2 81.272 14.52 87.496 24.016C96.072 37.096 100.8 54.848 100.8 74C100.8 89.864 95.936 102.992 86.736 111.968ZM79.768 31.488C80.072 31.376 80.408 31.288 80.768 31.232C81.128 31.176 81.472 31.096 81.792 31.008C81.848 31.048 81.896 31.072 81.952 31.08C82.008 31.088 82.064 31.096 82.128 31.096C82.16 31.096 82.192 31.096 82.224 31.096C82.256 31.096 82.288 31.104 82.32 31.112C82.408 31.184 82.488 31.24 82.552 31.272C82.616 31.304 82.704 31.336 82.8 31.384C82.84 31.44 82.84 31.52 82.808 31.624C82.776 31.728 82.728 31.824 82.664 31.912C82.6 32 82.536 32.072 82.472 32.112C82.368 32.176 82.208 32.232 82.008 32.272C81.8 32.312 81.608 32.36 81.432 32.432C81.248 32.496 81.04 32.592 80.816 32.704C80.592 32.816 80.4 32.96 80.24 33.128C80.08 33.296 79.992 33.496 79.984 33.736C79.984 33.896 80.032 34.048 80.12 34.208C80.208 34.368 80.32 34.496 80.456 34.608C80.592 34.72 80.72 34.8 80.84 34.84C80.944 34.88 81.056 34.888 81.184 34.88C81.312 34.872 81.448 34.88 81.584 34.92C81.752 34.968 81.912 35.032 82.048 35.12C82.184 35.208 82.328 35.272 82.472 35.312C82.504 35.312 82.52 35.36 82.536 35.424C82.536 35.464 82.552 35.496 82.568 35.52C82.584 35.544 82.616 35.552 82.672 35.536C82.728 35.616 82.744 35.696 82.72 35.76C82.696 35.824 82.664 35.88 82.624 35.92C82.376 35.968 82.088 35.968 81.768 35.92C81.44 35.88 81.12 35.8 80.808 35.688C80.488 35.576 80.216 35.424 79.992 35.232C79.768 35.04 79.632 34.832 79.592 34.584C79.536 34.248 79.592 33.944 79.728 33.68C79.872 33.408 80.032 33.16 80.224 32.92C80.32 32.792 80.416 32.672 80.512 32.552C80.608 32.44 80.688 32.32 80.752 32.2C80.568 32.224 80.36 32.264 80.144 32.32C79.928 32.376 79.72 32.416 79.52 32.424C79.4 32.424 79.288 32.408 79.176 32.376C79.064 32.344 78.96 32.288 78.872 32.2C78.96 32.032 79.088 31.888 79.24 31.776C79.4 31.664 79.576 31.568 79.768 31.496V31.488ZM75.152 30.152C75.408 30.136 75.632 30.096 75.832 30.04C76.032 29.984 76.248 29.92 76.472 29.848C76.6 29.808 76.728 29.784 76.848 29.768C76.968 29.752 77.056 29.688 77.112 29.576C77.2 29.368 77.264 29.128 77.304 28.872C77.344 28.608 77.384 28.344 77.424 28.08C77.472 27.816 77.536 27.584 77.64 27.392C77.768 27.296 77.896 27.248 78.024 27.248C78.152 27.248 78.264 27.28 78.368 27.352C78.504 27.424 78.616 27.544 78.696 27.696C78.784 27.848 78.832 28.008 78.832 28.16C78.736 28.32 78.632 28.496 78.52 28.688C78.408 28.88 78.336 29.096 78.304 29.328C78.368 29.328 78.44 29.304 78.512 29.264C78.584 29.224 78.64 29.184 78.672 29.16V28.936C78.976 28.88 79.264 28.904 79.528 29.024C79.792 29.144 79.944 29.36 79.984 29.664C79.896 29.736 79.792 29.784 79.688 29.808C79.576 29.832 79.48 29.856 79.384 29.888C79.288 29.92 79.208 29.984 79.152 30.088C78.928 30.088 78.752 30.144 78.616 30.248C78.488 30.344 78.328 30.416 78.152 30.472C78.08 30.592 78.032 30.696 78.008 30.8C77.984 30.896 77.96 30.992 77.936 31.08C77.912 31.168 77.848 31.264 77.752 31.36C77.752 31.36 77.768 31.376 77.784 31.384C77.832 31.408 77.848 31.44 77.84 31.472C77.808 31.536 77.76 31.584 77.688 31.608C77.616 31.632 77.576 31.688 77.56 31.768C77.56 31.816 77.584 31.824 77.624 31.792C77.656 31.768 77.672 31.776 77.672 31.816C77.672 31.816 77.672 31.832 77.664 31.848C77.664 31.904 77.64 31.944 77.624 31.984C77.608 32.024 77.552 32.032 77.472 32.008C77.456 32.064 77.448 32.12 77.448 32.168V32.304C77.448 32.376 77.448 32.44 77.424 32.504C77.408 32.56 77.36 32.624 77.28 32.696C77.296 32.736 77.32 32.744 77.36 32.72C77.4 32.696 77.424 32.704 77.44 32.728C77.384 32.792 77.328 32.896 77.264 33.032C77.2 33.168 77.208 33.296 77.28 33.424C77.192 33.48 77.144 33.552 77.144 33.656C77.144 33.76 77.144 33.856 77.136 33.952C77.136 34.048 77.072 34.112 76.96 34.152C76.96 34.192 76.976 34.2 77.024 34.184H77.08C77.08 34.4 77.048 34.6 76.992 34.776C76.944 34.952 76.896 35.136 76.84 35.336C76.784 35.536 76.744 35.776 76.72 36.072C76.624 36.144 76.512 36.16 76.392 36.112C76.272 36.064 76.144 35.984 76.024 35.872C75.904 35.76 75.808 35.64 75.736 35.512C75.664 35.384 75.632 35.28 75.632 35.184C75.632 35.152 75.656 35.088 75.712 34.992C75.76 34.896 75.808 34.808 75.832 34.72C75.872 34.64 75.896 34.56 75.92 34.488C75.936 34.416 75.96 34.336 75.992 34.264C76.04 34.136 76.096 34.008 76.184 33.88C76.264 33.752 76.32 33.624 76.352 33.504C76.4 33.344 76.424 33.192 76.424 33.048C76.424 32.896 76.448 32.76 76.472 32.624C76.488 32.56 76.52 32.496 76.576 32.448C76.632 32.4 76.664 32.336 76.68 32.28C76.68 32.264 76.68 32.24 76.672 32.2C76.672 32.152 76.656 32.104 76.656 32.048C76.656 31.992 76.656 31.928 76.688 31.848C76.704 31.784 76.728 31.72 76.768 31.664C76.808 31.608 76.832 31.552 76.84 31.504C76.84 31.472 76.856 31.432 76.864 31.384C76.88 31.288 76.888 31.192 76.896 31.104C76.896 31.016 76.888 30.936 76.84 30.856C76.464 30.896 76.128 30.856 75.824 30.744C75.52 30.632 75.296 30.44 75.16 30.16L75.152 30.152ZM77.288 45.04C76.936 45.128 76.624 45.256 76.352 45.424C76.08 45.592 75.88 45.832 75.744 46.136C75.848 46.288 75.96 46.408 76.088 46.504C76.208 46.6 76.336 46.688 76.464 46.776C76.592 46.864 76.704 46.968 76.808 47.096C77.072 47.144 77.36 47.216 77.672 47.312C77.992 47.416 78.272 47.464 78.528 47.464C78.728 47.464 78.904 47.416 79.04 47.32C79.184 47.224 79.272 47.048 79.312 46.792C79.312 46.736 79.312 46.688 79.312 46.648C79.312 46.6 79.296 46.56 79.288 46.512C79.272 46.456 79.264 46.416 79.264 46.392C79.264 46.264 79.256 46.112 79.264 45.936C79.264 45.76 79.272 45.632 79.28 45.536C79.488 45.496 79.712 45.496 79.952 45.536C80.192 45.576 80.368 45.648 80.488 45.752C80.472 45.896 80.432 46.024 80.368 46.144C80.304 46.264 80.24 46.36 80.184 46.424C80.224 46.456 80.256 46.464 80.296 46.456C80.336 46.448 80.376 46.424 80.416 46.408C80.44 46.392 80.464 46.376 80.488 46.368C80.512 46.36 80.536 46.352 80.56 46.352C80.576 46.384 80.584 46.416 80.592 46.456C80.592 46.496 80.616 46.528 80.64 46.536C80.784 46.432 80.936 46.352 81.112 46.296C81.288 46.24 81.456 46.24 81.624 46.296C81.728 46.224 81.768 46.072 81.744 45.856C81.488 45.48 81.152 45.216 80.744 45.064C80.336 44.912 79.832 44.792 79.256 44.72C79.256 44.696 79.256 44.656 79.248 44.6C79.232 44.456 79.216 44.296 79.208 44.12C79.2 43.944 79.208 43.784 79.224 43.648C79.472 43.608 79.688 43.544 79.872 43.448C80.056 43.352 80.232 43.248 80.408 43.128C80.576 43.016 80.768 42.912 80.976 42.832C80.976 42.776 80.976 42.728 80.976 42.688C80.976 42.64 80.992 42.6 81 42.568C81.016 42.496 81.024 42.424 81.016 42.368C81.016 42.304 80.976 42.248 80.896 42.192C80.792 42.12 80.664 42.064 80.52 42.024C80.376 41.984 80.248 41.936 80.128 41.872C80.008 41.808 79.936 41.704 79.912 41.552C79.848 41.648 79.824 41.76 79.848 41.88C79.872 42 79.904 42.104 79.936 42.192C79.936 42.208 79.944 42.216 79.944 42.224C79.832 42.28 79.712 42.328 79.576 42.384C79.448 42.44 79.304 42.48 79.144 42.512C79.128 42.248 79.128 41.976 79.144 41.68C79.152 41.392 79.168 41.12 79.184 40.864C79.304 40.808 79.48 40.768 79.712 40.728C79.944 40.688 80.184 40.656 80.448 40.616C80.704 40.576 80.928 40.544 81.128 40.504C81.128 40.312 81.08 40.168 80.96 40.064C80.84 39.96 80.688 39.896 80.504 39.864C80.32 39.832 80.112 39.808 79.88 39.8C79.648 39.8 79.432 39.784 79.232 39.768C79.264 39.64 79.272 39.48 79.256 39.28C79.24 39.08 79.192 38.912 79.12 38.768C79.064 38.64 78.984 38.552 78.872 38.512C78.76 38.464 78.632 38.488 78.48 38.576C78.424 38.76 78.392 38.984 78.384 39.232C78.376 39.48 78.352 39.704 78.336 39.888C78.064 39.952 77.768 40.008 77.472 40.048C77.176 40.088 76.888 40.144 76.624 40.216C76.36 40.288 76.144 40.416 75.968 40.584C76.184 40.68 76.416 40.776 76.656 40.864C76.896 40.952 77.152 41.008 77.432 41.04C77.704 41.064 77.992 41.04 78.296 40.96C78.312 41.088 78.32 41.256 78.328 41.472C78.328 41.688 78.336 41.904 78.352 42.136C78.36 42.368 78.376 42.568 78.392 42.744C78.248 42.808 78.056 42.848 77.816 42.88C77.576 42.912 77.32 42.928 77.048 42.928C76.776 42.928 76.528 42.912 76.288 42.88C76.36 43.128 76.504 43.312 76.704 43.448C76.904 43.584 77.144 43.672 77.432 43.72C77.712 43.768 78.008 43.8 78.304 43.8C78.304 43.84 78.336 43.864 78.368 43.872C78.4 43.88 78.424 43.904 78.432 43.944V44.832C78.032 44.888 77.664 44.952 77.304 45.048L77.288 45.04ZM78.4 46.192C78.4 46.36 78.32 46.48 78.184 46.536C77.92 46.52 77.688 46.48 77.48 46.416C77.272 46.352 77.088 46.272 76.912 46.16C77.032 46.056 77.184 45.968 77.36 45.888C77.536 45.816 77.72 45.752 77.912 45.704C78.104 45.656 78.256 45.616 78.384 45.6C78.384 45.624 78.384 45.664 78.392 45.72C78.392 45.856 78.392 46.008 78.392 46.176L78.4 46.192ZM76.464 56.696C76.384 56.464 76.352 56.264 76.36 56.104C76.384 55.912 76.44 55.736 76.536 55.576C76.632 55.416 76.736 55.264 76.856 55.12C76.976 54.976 77.08 54.816 77.16 54.664C77.128 54.952 77.112 55.184 77.112 55.384C77.112 55.536 77.112 55.688 77.136 55.856C77.16 56.024 77.184 56.176 77.224 56.32C77.28 56.456 77.4 56.6 77.568 56.768C77.736 56.936 77.936 57.048 78.168 57.112C78.432 57.184 78.72 57.232 79.04 57.256C79.36 57.28 79.656 57.32 79.912 57.392C80.144 57.456 80.336 57.552 80.48 57.68C80.632 57.816 80.704 58.024 80.696 58.304C80.512 58.416 80.288 58.464 80.032 58.448C79.776 58.432 79.52 58.4 79.264 58.36C79.224 58.36 79.192 58.36 79.16 58.36C79.128 58.36 79.096 58.352 79.072 58.344C78.792 58.296 78.488 58.224 78.184 58.12C77.872 58.016 77.592 57.888 77.336 57.736C77.08 57.584 76.888 57.424 76.752 57.256C76.64 57.112 76.544 56.928 76.464 56.696V56.696ZM82.52 51.984C82.584 52.096 82.624 52.216 82.624 52.352C82.624 52.488 82.584 52.616 82.496 52.744C82.272 52.704 82.096 52.624 81.976 52.504C81.856 52.384 81.76 52.232 81.688 52.056C81.624 51.88 81.568 51.696 81.52 51.512C81.696 51.456 81.888 51.472 82.08 51.576C82.272 51.68 82.416 51.816 82.52 51.984V51.984ZM82.712 50.976C82.992 51.024 83.216 51.096 83.376 51.2C83.536 51.304 83.688 51.448 83.832 51.624C83.832 51.656 83.824 51.688 83.832 51.728C83.832 51.768 83.832 51.8 83.832 51.84C83.832 51.912 83.832 51.984 83.832 52.056C83.824 52.128 83.776 52.192 83.704 52.24C83.56 52.264 83.424 52.224 83.288 52.128C83.152 52.032 83.04 51.904 82.944 51.744C82.848 51.584 82.776 51.44 82.736 51.288C82.696 51.144 82.688 51.04 82.72 50.968L82.712 50.976ZM76.32 51.368C76.392 51.304 76.488 51.264 76.608 51.256C76.72 51.256 76.84 51.256 76.952 51.256C77 51.256 77.04 51.264 77.08 51.264H77.2C77.6 51.24 78.008 51.24 78.4 51.256C78.8 51.272 79.176 51.312 79.52 51.376C79.864 51.44 80.16 51.544 80.408 51.688C80.504 51.832 80.616 51.952 80.752 52.056C80.88 52.16 80.976 52.304 81.024 52.488C80.96 52.632 80.856 52.744 80.728 52.816C80.6 52.888 80.448 52.952 80.272 53C80.104 53.048 79.936 53.08 79.76 53.104C79.584 53.128 79.416 53.168 79.256 53.208C79.2 53.192 79.16 53.168 79.136 53.128C79.112 53.088 79.064 53.064 79 53.064C78.832 53.12 78.664 53.192 78.504 53.296C78.344 53.4 78.176 53.528 77.992 53.68C78.08 53.504 78.208 53.336 78.376 53.184C78.544 53.032 78.72 52.88 78.912 52.736C79.104 52.592 79.264 52.432 79.4 52.272C78.728 52.328 78.12 52.288 77.584 52.16C77.04 52.032 76.624 51.768 76.32 51.368V51.368ZM82.24 64.552C82.36 64.664 82.464 64.76 82.536 64.84C82.736 65.056 82.904 65.312 83.024 65.608C83.144 65.904 83.248 66.216 83.328 66.536C83.408 66.856 83.488 67.184 83.552 67.504C83.512 67.52 83.488 67.544 83.488 67.584C83.488 67.608 83.472 67.616 83.44 67.616C83.392 67.6 83.344 67.592 83.296 67.592H83.136C83.04 67.592 82.944 67.592 82.84 67.568C82.736 67.552 82.648 67.512 82.576 67.432C82.504 67.36 82.432 67.24 82.376 67.088C82.32 66.936 82.272 66.768 82.224 66.592C82.176 66.416 82.136 66.264 82.104 66.128C82.032 65.832 81.912 65.552 81.744 65.296C81.576 65.04 81.416 64.792 81.256 64.56C81.096 64.328 80.976 64.088 80.904 63.856L80.952 63.776C81.056 63.736 81.192 63.776 81.368 63.88C81.536 63.984 81.712 64.112 81.88 64.248C81.992 64.328 82.112 64.424 82.232 64.536L82.24 64.552ZM74.488 64.52C74.832 64.584 75.128 64.568 75.376 64.48C75.624 64.392 75.856 64.296 76.08 64.184C76.192 64.136 76.304 64.08 76.416 64.032C76.528 63.984 76.648 63.944 76.76 63.904C76.864 63.504 76.968 63.112 77.08 62.712C77.192 62.312 77.312 61.928 77.448 61.568C77.464 61.528 77.496 61.52 77.536 61.536C77.576 61.552 77.616 61.576 77.648 61.6C77.744 61.696 77.824 61.864 77.896 62.096C77.96 62.328 78 62.568 78 62.816C78 63 77.96 63.184 77.888 63.36C77.816 63.536 77.752 63.664 77.712 63.736C78.088 63.8 78.416 63.896 78.696 64.016C78.976 64.136 79.216 64.328 79.416 64.6C79.456 64.768 79.48 64.944 79.488 65.128C79.496 65.304 79.504 65.48 79.504 65.656C79.504 66.152 79.432 66.632 79.32 67.096C79.208 67.56 79.072 67.952 78.912 68.288C78.896 68.328 78.864 68.392 78.816 68.488C78.768 68.584 78.72 68.688 78.664 68.792C78.608 68.904 78.56 68.984 78.504 69.048C78.36 69.224 78.192 69.36 77.984 69.44C77.776 69.52 77.56 69.608 77.32 69.696C77.088 69.64 76.912 69.488 76.784 69.256C76.664 69.024 76.584 68.76 76.544 68.464C76.504 68.168 76.496 67.888 76.52 67.632C76.576 67.632 76.608 67.608 76.616 67.568C76.624 67.52 76.632 67.472 76.616 67.408C76.616 67.368 76.616 67.336 76.616 67.304C76.616 67.272 76.632 67.248 76.656 67.232C76.672 67.408 76.696 67.6 76.72 67.8C76.752 68 76.8 68.176 76.88 68.336C76.96 68.496 77.072 68.616 77.224 68.688C77.488 68.608 77.72 68.416 77.928 68.128C78.136 67.84 78.296 67.488 78.424 67.088C78.544 66.688 78.608 66.28 78.608 65.88C78.608 65.616 78.576 65.368 78.528 65.12C78.472 64.88 78.384 64.664 78.256 64.488C78.216 64.488 78.192 64.488 78.176 64.456C77.912 64.432 77.728 64.472 77.608 64.576C77.488 64.68 77.392 64.8 77.328 64.952C77.264 65.104 77.192 65.256 77.128 65.424C77.064 65.592 76.96 65.728 76.808 65.832C76.848 65.872 76.856 65.92 76.832 65.976C76.808 66.032 76.776 66.064 76.728 66.08C76.728 66.12 76.744 66.136 76.784 66.144C76.752 66.2 76.72 66.264 76.68 66.36C76.64 66.448 76.608 66.536 76.576 66.632C76.552 66.72 76.552 66.792 76.576 66.848C76.512 66.872 76.472 66.904 76.456 66.944C76.448 66.984 76.416 67.016 76.368 67.032C76.368 67.064 76.368 67.08 76.408 67.088C76.44 67.088 76.472 67.088 76.504 67.064C76.52 67.112 76.504 67.136 76.44 67.152C76.416 67.152 76.4 67.168 76.376 67.168C76.36 67.168 76.344 67.184 76.328 67.208C76.312 67.24 76.304 67.264 76.296 67.288C76.296 67.312 76.296 67.336 76.296 67.352C76.296 67.384 76.296 67.408 76.28 67.432C76.272 67.456 76.24 67.464 76.184 67.464C76.184 67.52 76.216 67.552 76.288 67.576C76.208 67.744 76.136 67.88 76.072 68C76.016 68.12 75.952 68.28 75.896 68.472C75.688 68.424 75.536 68.36 75.44 68.272C75.344 68.184 75.24 68.072 75.136 67.936C75.152 67.672 75.224 67.464 75.344 67.304C75.464 67.144 75.592 66.992 75.72 66.848C75.68 66.736 75.696 66.6 75.76 66.448C75.824 66.296 75.896 66.136 75.992 65.984C76.056 65.848 76.12 65.72 76.176 65.6C76.232 65.48 76.264 65.368 76.264 65.272C75.864 65.368 75.504 65.36 75.176 65.248C74.848 65.136 74.616 64.904 74.496 64.544L74.488 64.52ZM75.04 78.328C75.072 78.264 75.08 78.208 75.08 78.152C75.08 78.096 75.072 78.032 75.064 77.96C75.064 77.92 75.048 77.88 75.048 77.84C75.048 77.8 75.048 77.76 75.048 77.712C75.048 77.352 75.08 76.952 75.128 76.512C75.176 76.072 75.224 75.616 75.288 75.16C75.352 74.696 75.4 74.264 75.448 73.848C75.448 73.816 75.448 73.792 75.448 73.76C75.448 73.728 75.448 73.704 75.448 73.68C75.448 73.576 75.472 73.488 75.496 73.424C75.52 73.36 75.584 73.304 75.696 73.264C75.744 73.4 75.824 73.528 75.912 73.648C76.008 73.768 76.096 73.896 76.184 74.016C76.272 74.136 76.32 74.272 76.344 74.416C76.36 74.512 76.352 74.64 76.336 74.784C76.312 74.936 76.28 75.096 76.248 75.264C76.224 75.368 76.208 75.48 76.184 75.592C76.16 75.704 76.152 75.824 76.136 75.936C76.104 76.192 76.08 76.44 76.064 76.696C76.048 76.944 76.032 77.2 76.024 77.448V77.592C76.024 77.64 76.024 77.68 76.032 77.728C76.032 77.808 76.04 77.888 76.032 77.968C76.024 78.048 76.008 78.128 75.984 78.208C76.032 78.248 76.056 78.304 76.056 78.384C76.056 78.464 76.056 78.552 76.056 78.648C76.056 78.72 76.04 78.8 76.04 78.88C76.04 78.96 76.04 79.04 76.056 79.112C76.232 78.872 76.392 78.616 76.536 78.336C76.68 78.056 76.808 77.768 76.928 77.48C76.904 77.688 76.88 77.872 76.848 78.016C76.816 78.16 76.768 78.312 76.704 78.464C76.76 78.496 76.776 78.528 76.76 78.576C76.744 78.624 76.76 78.656 76.816 78.68C76.776 78.84 76.744 79.024 76.704 79.248C76.664 79.472 76.616 79.688 76.568 79.912C76.512 80.136 76.424 80.328 76.312 80.48C76.2 80.64 76.072 80.68 75.928 80.616C75.784 80.552 75.656 80.456 75.544 80.336C75.392 80.168 75.288 79.96 75.224 79.728C75.16 79.496 75.12 79.256 75.104 79.008C75.088 78.76 75.064 78.528 75.04 78.32V78.328ZM83.072 75.248C83.08 75.2 83.088 75.144 83.072 75.08V75C83.072 75 83.072 74.952 83.08 74.928C82.88 74.776 82.64 74.656 82.368 74.552C82.096 74.448 81.856 74.32 81.648 74.168C81.504 74.056 81.392 73.92 81.32 73.752C81.24 73.584 81.216 73.376 81.248 73.128C81.152 73.08 81.04 73.064 80.92 73.088C80.8 73.112 80.68 73.168 80.576 73.24C80.472 73.312 80.392 73.4 80.344 73.488C80.288 73.6 80.256 73.72 80.248 73.856C80.248 73.984 80.248 74.12 80.248 74.264C80.248 74.36 80.256 74.456 80.256 74.552C80.256 74.648 80.256 74.744 80.232 74.84C79.76 74.888 79.32 74.976 78.904 75.088C78.488 75.2 78.088 75.336 77.704 75.488C77.704 75.528 77.68 75.552 77.656 75.576C77.632 75.6 77.608 75.616 77.576 75.632C77.544 75.648 77.52 75.664 77.496 75.696C77.472 75.728 77.456 75.76 77.456 75.816C77.728 75.936 78.032 75.992 78.352 75.992C78.672 75.992 78.992 75.96 79.32 75.896C79.648 75.832 79.952 75.768 80.232 75.696C80.312 76.664 80.328 77.656 80.272 78.656C80.216 79.664 80.064 80.64 79.808 81.584C79.904 81.568 80.016 81.536 80.136 81.496C80.256 81.448 80.32 81.344 80.312 81.184C80.456 81.184 80.552 81.128 80.616 81.04C80.68 80.952 80.72 80.84 80.76 80.712C80.792 80.584 80.84 80.464 80.888 80.352C80.928 80.272 80.976 80.2 81.032 80.152C81.088 80.096 81.128 80.048 81.144 79.992C81.168 79.92 81.184 79.808 81.208 79.664C81.224 79.52 81.232 79.4 81.208 79.304C81.208 79.232 81.208 79.144 81.208 79.048C81.208 78.952 81.224 78.856 81.232 78.752C81.232 78.704 81.248 78.648 81.248 78.592C81.248 78.536 81.248 78.48 81.248 78.432C81.248 78.208 81.248 77.984 81.248 77.752C81.24 77.52 81.224 77.288 81.208 77.056C81.184 76.792 81.168 76.536 81.16 76.272C81.152 76.008 81.16 75.76 81.176 75.512C81.248 75.512 81.32 75.496 81.392 75.48C81.464 75.464 81.528 75.456 81.608 75.448C81.816 75.416 82.032 75.392 82.248 75.368C82.464 75.344 82.696 75.344 82.952 75.36C83.024 75.336 83.072 75.296 83.08 75.248H83.072ZM81.096 74.664C81.096 74.664 81.096 74.64 81.088 74.608C81.088 74.536 81.072 74.424 81.056 74.288C81.04 74.152 81.048 74.048 81.064 73.992C81.12 74.104 81.176 74.208 81.24 74.304C81.304 74.4 81.36 74.512 81.4 74.64L81.096 74.664ZM82.528 85.912C82.592 86.024 82.632 86.144 82.632 86.28C82.632 86.416 82.592 86.544 82.504 86.672C82.28 86.632 82.104 86.552 81.984 86.432C81.864 86.312 81.768 86.16 81.696 85.984C81.632 85.808 81.576 85.624 81.528 85.44C81.704 85.384 81.896 85.4 82.088 85.504C82.28 85.608 82.424 85.744 82.528 85.912V85.912ZM77.16 88.592C77.128 88.88 77.112 89.112 77.112 89.312C77.112 89.464 77.112 89.616 77.136 89.784C77.16 89.952 77.184 90.104 77.224 90.248C77.28 90.384 77.4 90.528 77.568 90.696C77.736 90.864 77.936 90.976 78.168 91.04C78.432 91.112 78.72 91.16 79.04 91.184C79.36 91.208 79.656 91.248 79.912 91.32C80.144 91.384 80.336 91.48 80.48 91.608C80.632 91.744 80.704 91.952 80.696 92.232C80.512 92.344 80.288 92.392 80.032 92.376C79.776 92.36 79.52 92.328 79.264 92.288C79.224 92.288 79.192 92.288 79.16 92.288C79.128 92.288 79.096 92.28 79.072 92.272C78.792 92.224 78.488 92.152 78.184 92.048C77.872 91.944 77.592 91.816 77.336 91.664C77.08 91.512 76.888 91.352 76.752 91.184C76.64 91.04 76.544 90.856 76.464 90.624C76.384 90.392 76.352 90.192 76.36 90.032C76.384 89.84 76.44 89.664 76.536 89.504C76.632 89.344 76.736 89.192 76.856 89.048C76.976 88.904 77.08 88.744 77.16 88.592V88.592ZM80.728 86.752C80.6 86.832 80.448 86.888 80.272 86.936C80.104 86.984 79.936 87.016 79.76 87.04C79.584 87.064 79.416 87.104 79.256 87.144C79.2 87.128 79.16 87.104 79.136 87.064C79.112 87.024 79.064 87 79 87C78.832 87.056 78.664 87.128 78.504 87.232C78.344 87.336 78.176 87.464 77.992 87.616C78.08 87.44 78.208 87.272 78.376 87.12C78.544 86.968 78.72 86.816 78.912 86.672C79.104 86.528 79.264 86.368 79.4 86.208C78.728 86.264 78.12 86.224 77.584 86.096C77.04 85.968 76.624 85.704 76.32 85.304C76.392 85.24 76.488 85.2 76.608 85.192C76.72 85.192 76.84 85.192 76.952 85.192C77 85.192 77.04 85.2 77.08 85.2H77.2C77.6 85.176 78.008 85.176 78.4 85.192C78.8 85.208 79.176 85.248 79.52 85.312C79.864 85.376 80.16 85.48 80.408 85.624C80.504 85.768 80.616 85.888 80.752 85.992C80.88 86.096 80.976 86.24 81.024 86.424C80.96 86.568 80.856 86.68 80.728 86.752V86.752ZM83.832 85.56C83.832 85.56 83.824 85.624 83.832 85.664C83.832 85.704 83.832 85.736 83.832 85.776C83.832 85.848 83.832 85.92 83.832 85.992C83.824 86.064 83.776 86.128 83.704 86.176C83.56 86.2 83.424 86.16 83.288 86.064C83.152 85.968 83.04 85.84 82.944 85.68C82.848 85.52 82.776 85.376 82.736 85.224C82.696 85.08 82.688 84.976 82.72 84.904C83 84.952 83.224 85.024 83.384 85.128C83.544 85.232 83.696 85.376 83.84 85.552L83.832 85.56ZM83.808 102.92C83.656 102.72 83.464 102.544 83.224 102.392C82.984 102.24 82.752 102.088 82.52 101.936C82.288 101.784 82.104 101.6 81.968 101.384C82.048 101.056 82.144 100.736 82.256 100.432C82.36 100.128 82.424 99.768 82.432 99.368C82.56 99.264 82.68 99.192 82.8 99.16C82.92 99.128 83.072 99.088 83.272 99.056C83.272 98.864 83.2 98.704 83.08 98.592C82.96 98.48 82.816 98.384 82.64 98.32C82.464 98.256 82.28 98.208 82.096 98.176C81.912 98.144 81.744 98.112 81.592 98.08C81.408 98.2 81.16 98.264 80.856 98.28C80.552 98.296 80.248 98.328 79.944 98.368C79.976 98.16 79.944 97.944 79.864 97.728C79.784 97.512 79.68 97.344 79.552 97.232C79.856 97.2 80.072 97.184 80.192 97.176C80.608 97.128 81.064 97.08 81.552 97.016C82.04 96.952 82.504 96.904 82.936 96.872C83.144 96.856 83.296 96.84 83.392 96.816C83.488 96.792 83.576 96.744 83.664 96.672C83.48 96.504 83.256 96.368 83 96.264C82.744 96.16 82.528 96.072 82.352 96.024C82.32 96.024 82.304 96.056 82.296 96.088C82.296 96.128 82.272 96.152 82.24 96.176C82.024 96.192 81.808 96.216 81.592 96.24C81.376 96.272 81.152 96.304 80.928 96.344C80.528 96.4 80.12 96.456 79.712 96.504C79.304 96.552 78.904 96.552 78.52 96.504C78.52 96.568 78.52 96.616 78.536 96.664C78.552 96.712 78.576 96.76 78.6 96.8C78.632 96.864 78.656 96.92 78.68 96.976C78.704 97.032 78.704 97.104 78.68 97.184C78.736 97.216 78.776 97.264 78.792 97.344C78.808 97.416 78.816 97.504 78.824 97.592C78.88 97.648 78.944 97.744 79.032 97.88C79.12 98.024 79.16 98.152 79.16 98.272C79.16 98.4 79.096 98.48 78.984 98.52C78.92 98.352 78.8 98.232 78.624 98.152C78.448 98.072 78.264 98 78.056 97.952C77.848 97.904 77.656 97.84 77.48 97.76C77.448 97.816 77.408 97.864 77.36 97.904C77.312 97.952 77.24 97.968 77.144 97.96C77.192 97.872 77.216 97.792 77.232 97.72C77.248 97.648 77.256 97.584 77.256 97.52C77.256 97.376 77.208 97.264 77.112 97.176C77.016 97.088 76.896 97.016 76.76 96.944C76.624 96.872 76.48 96.808 76.336 96.744C76.416 96.616 76.496 96.488 76.576 96.344C76.656 96.208 76.752 96.096 76.872 96.016C77.032 96.28 77.232 96.488 77.488 96.656C77.744 96.824 78.024 96.96 78.328 97.064C78.424 96.944 78.472 96.832 78.464 96.72C78.464 96.608 78.416 96.496 78.344 96.392C78.256 96.256 78.128 96.128 77.96 96.008C77.792 95.888 77.624 95.776 77.464 95.68C77.304 95.584 77.168 95.504 77.072 95.448C77.048 95.272 76.96 95.128 76.8 95.032C76.64 94.936 76.456 94.872 76.248 94.84C76.04 94.808 75.856 94.808 75.696 94.84C75.696 94.928 75.728 95 75.776 95.056C75.824 95.112 75.872 95.16 75.928 95.208C75.984 95.256 76.016 95.32 76.032 95.408C75.76 95.888 75.464 96.36 75.144 96.84C74.816 97.32 74.512 97.752 74.232 98.152C74.192 98.12 74.152 98.152 74.112 98.232C74.072 98.312 74.048 98.392 74.04 98.464C73.944 98.512 73.88 98.552 73.856 98.6C73.832 98.648 73.8 98.696 73.768 98.752C73.736 98.808 73.664 98.872 73.552 98.952C73.464 98.952 73.392 98.968 73.344 99.016C73.296 99.064 73.256 99.12 73.224 99.176C73.224 99.176 73.208 99.192 73.2 99.2C73.264 99.224 73.32 99.256 73.368 99.288C73.416 99.32 73.456 99.368 73.488 99.408C73.528 99.456 73.568 99.488 73.608 99.528C73.648 99.56 73.704 99.576 73.768 99.576C73.888 99.576 74.008 99.512 74.136 99.4C74.256 99.296 74.384 99.168 74.504 99.04C74.624 98.912 74.744 98.808 74.848 98.752C74.968 98.896 75.056 99.104 75.104 99.376C75.16 99.648 75.184 99.936 75.176 100.24C75.176 100.536 75.144 100.808 75.08 101.048C75.144 101.168 75.168 101.344 75.176 101.584C75.184 101.824 75.176 102.064 75.176 102.32C75.176 102.52 75.16 102.72 75.16 102.904C75.16 103.096 75.168 103.256 75.2 103.392C75.176 103.392 75.136 103.376 75.088 103.368C74.984 103.336 74.872 103.32 74.76 103.304C74.648 103.296 74.536 103.32 74.432 103.392C74.536 103.472 74.632 103.584 74.704 103.712C74.784 103.84 74.864 103.968 74.944 104.088C75.024 104.208 75.12 104.304 75.224 104.376C75.304 104.432 75.392 104.464 75.496 104.472C75.592 104.48 75.712 104.472 75.84 104.432C75.84 104.4 75.84 104.376 75.816 104.344C75.792 104.304 75.792 104.272 75.808 104.232C76.072 104.016 76.376 103.848 76.736 103.736C77.096 103.624 77.424 103.48 77.728 103.32C77.784 103.392 77.872 103.424 77.976 103.424C78.08 103.424 78.176 103.392 78.264 103.36C78.248 103.424 78.224 103.488 78.2 103.536C78.176 103.584 78.136 103.632 78.096 103.672C78.048 103.736 78.008 103.808 77.976 103.88C77.944 103.952 77.92 104.048 77.92 104.168C77.984 104.192 78.048 104.2 78.104 104.192C78.16 104.192 78.216 104.176 78.28 104.168C78.312 104.168 78.344 104.152 78.368 104.144C78.392 104.136 78.424 104.136 78.456 104.136C78.744 103.808 78.984 103.416 79.176 102.952C79.36 102.496 79.512 102.008 79.632 101.488C79.752 100.968 79.848 100.456 79.912 99.952C80.008 100.008 80.072 100.088 80.088 100.216C80.112 100.336 80.152 100.464 80.208 100.592C80.248 100.656 80.288 100.728 80.336 100.792C80.384 100.856 80.44 100.928 80.496 101.008C80.592 101.136 80.688 101.264 80.768 101.4C80.848 101.536 80.896 101.672 80.896 101.8C80.896 101.856 80.864 101.952 80.816 102.072C80.76 102.192 80.696 102.304 80.632 102.416C80.568 102.528 80.512 102.608 80.472 102.656C80.304 102.904 80.072 103.128 79.768 103.336C79.464 103.544 79.176 103.68 78.904 103.736C78.984 103.896 79.096 103.984 79.224 104.016C79.352 104.048 79.504 104.048 79.68 104.016C79.856 103.984 80.032 103.928 80.192 103.84C80.36 103.752 80.52 103.632 80.672 103.496C80.752 103.424 80.848 103.312 80.96 103.168C81.072 103.024 81.176 102.888 81.28 102.752C81.384 102.616 81.456 102.528 81.496 102.48C81.648 102.656 81.792 102.872 81.936 103.112C82.08 103.352 82.2 103.576 82.288 103.768C82.456 103.864 82.64 103.96 82.824 104.048C83.008 104.136 83.2 104.184 83.4 104.184C83.496 104.184 83.592 104.168 83.688 104.144C83.784 104.12 83.888 104.072 83.992 104.016C84.056 103.784 84.072 103.584 84.032 103.408C83.992 103.232 83.912 103.072 83.8 102.928L83.808 102.92ZM77.48 98.608C77.48 98.664 77.472 98.712 77.472 98.768C77.472 98.824 77.472 98.872 77.48 98.936C77.48 99.024 77.488 99.12 77.488 99.224C77.488 99.328 77.472 99.432 77.44 99.544C77.296 99.456 77.136 99.416 76.952 99.432C76.768 99.448 76.584 99.472 76.408 99.512C76.32 99.528 76.232 99.544 76.152 99.56C76.072 99.576 75.984 99.584 75.904 99.584C75.888 99.512 75.888 99.448 75.896 99.384C75.896 99.328 75.912 99.28 75.92 99.232C75.92 99.168 75.936 99.12 75.936 99.072C75.936 99.024 75.92 98.968 75.872 98.896C76.064 98.768 76.304 98.696 76.592 98.664C76.88 98.64 77.176 98.624 77.472 98.616L77.48 98.608ZM77.48 100.144C77.472 100.272 77.456 100.4 77.44 100.512C77.424 100.576 77.416 100.632 77.416 100.656C77.24 100.624 77.056 100.624 76.88 100.656C76.704 100.688 76.536 100.72 76.368 100.768C76.296 100.784 76.224 100.8 76.152 100.816C76.08 100.832 76.016 100.848 75.944 100.864V100.224C76.176 100.16 76.424 100.104 76.696 100.072C76.968 100.04 77.2 99.984 77.416 99.896C77.464 99.936 77.488 100.016 77.48 100.144V100.144ZM75.344 98.248C75.392 98.064 75.504 97.872 75.656 97.672C75.808 97.472 75.952 97.288 76.072 97.12C76.2 97.24 76.328 97.36 76.456 97.488C76.584 97.608 76.648 97.8 76.648 98.056C76.464 98.072 76.24 98.096 75.976 98.12C75.712 98.152 75.504 98.192 75.352 98.256L75.344 98.248ZM79.176 99.736C79.16 100.048 79.112 100.36 79.04 100.68C78.96 100.992 78.888 101.288 78.816 101.568C78.744 101.848 78.704 102.096 78.688 102.312C78.616 102.416 78.552 102.544 78.512 102.696C78.472 102.848 78.424 102.984 78.376 103.12C78.24 102.736 78.056 102.408 77.824 102.136C77.592 101.864 77.288 101.648 76.92 101.512C76.96 101.696 77.016 101.864 77.104 102.008C77.192 102.152 77.24 102.32 77.264 102.52C77.16 102.648 77.024 102.752 76.864 102.832C76.696 102.912 76.528 102.976 76.352 103.032C76.176 103.088 76.008 103.16 75.84 103.24C75.824 103.072 75.832 102.872 75.856 102.648C75.88 102.424 75.912 102.208 75.936 102C75.936 101.904 75.952 101.808 75.968 101.72C75.976 101.632 75.992 101.552 76 101.472C76.104 101.472 76.208 101.448 76.32 101.424C76.424 101.4 76.536 101.368 76.64 101.328C76.84 101.28 77.04 101.232 77.232 101.2C77.424 101.168 77.6 101.192 77.768 101.272C77.8 101.272 77.84 101.264 77.888 101.264C77.952 101.264 78 101.248 78.048 101.232C78.096 101.216 78.136 101.184 78.152 101.12C78.152 100.976 78.192 100.824 78.248 100.648C78.304 100.48 78.344 100.296 78.376 100.112C78.408 99.888 78.424 99.672 78.432 99.464C78.432 99.256 78.432 99.088 78.424 98.944C78.504 98.904 78.592 98.864 78.696 98.824C78.792 98.776 78.856 98.728 78.888 98.664C79.008 98.664 79.096 98.728 79.144 98.888C79.184 98.992 79.2 99.128 79.2 99.288C79.2 99.448 79.2 99.6 79.192 99.752L79.176 99.736ZM81.496 99.824C81.448 100.096 81.4 100.368 81.352 100.632C81.352 100.688 81.336 100.72 81.328 100.744C81.208 100.688 81.096 100.592 81 100.472C80.904 100.352 80.776 100.224 80.632 100.096C80.6 100.064 80.568 100.04 80.536 100.008C80.504 99.984 80.472 99.952 80.44 99.928C80.288 99.808 80.16 99.688 80.048 99.56C79.936 99.432 79.904 99.28 79.944 99.088C80.112 99.024 80.288 98.976 80.496 98.968C80.704 98.96 80.92 98.944 81.16 98.944C81.224 98.944 81.296 98.944 81.36 98.944C81.424 98.944 81.488 98.944 81.56 98.944C81.56 99.264 81.552 99.56 81.504 99.84L81.496 99.824ZM57.928 34.608C57.528 34.264 57.152 33.824 56.8 33.288C56.456 32.76 56.2 32.336 56.032 32.024C56.072 31.912 55.928 31.72 55.952 31.608C55.976 31.496 56.232 31.52 56.36 31.504C57.312 31.632 58.12 31.952 58.776 32.464C59.432 32.976 60.048 33.704 60.032 34.672C59.76 34.984 59.168 35.12 58.856 35.056C58.544 34.992 58.232 34.84 57.92 34.6L57.928 34.608ZM38.336 36.592C39.32 36.56 41.056 36.888 41.832 36.656C42.608 36.424 43.352 36.168 44.064 35.872C44.376 34.992 44.624 34.088 44.808 33.152C44.992 32.216 45.24 31.344 45.552 30.52C45.992 30.32 46.36 30.304 46.648 30.464C46.944 30.632 47.208 30.824 47.44 31.04C47.496 31.096 47.552 31.152 47.608 31.208C47.664 31.264 47.72 31.312 47.776 31.344C47.904 32 47.864 32.64 47.664 33.264C47.464 33.888 47.288 34.36 47.144 34.688C47.104 34.8 47.08 34.872 47.064 34.904C47.688 34.72 48.096 34.624 48.296 34.6C48.936 34.56 49.52 34.704 50.04 35.008C50.56 35.32 50.888 35.76 51.016 36.328C50.288 36.712 49.488 37.032 48.632 37.288C47.776 37.544 46.968 37.856 46.216 38.224C45.92 39.136 45.656 40.024 45.424 40.872C45.184 41.72 44.96 42.6 44.736 43.496C44.536 43.536 44.432 43.648 44.432 43.84C44.432 44.032 44.424 44.232 44.408 44.432C44.392 44.632 44.256 44.776 44 44.872C44 44.944 44.056 44.984 44.168 44.984C44.296 44.968 44.336 45.024 44.28 45.152C44.08 45.24 43.92 45.392 43.8 45.608C43.68 45.816 43.72 46 43.92 46.144C43.792 46.2 43.704 46.312 43.648 46.488C43.592 46.664 43.624 46.784 43.728 46.856C43.656 46.968 43.56 47.072 43.456 47.168C43.344 47.272 43.28 47.408 43.264 47.592C43.336 47.832 43.344 48.152 43.288 48.552C43.232 48.952 43.16 49.376 43.072 49.816C43 50.184 42.928 50.544 42.864 50.896C42.8 51.256 42.776 51.568 42.792 51.84C42.68 51.928 42.568 52.024 42.448 52.128C42.328 52.232 42.192 52.312 42.048 52.392C41.864 52.336 41.72 52.24 41.608 52.088C41.496 51.944 41.384 51.808 41.264 51.68C41.144 51.552 40.976 51.488 40.752 51.488C40.752 51.232 40.632 51 40.392 50.784C40.152 50.576 40.024 50.32 40.008 50.032C39.992 49.832 40.032 49.616 40.144 49.384C40.256 49.152 40.368 48.912 40.504 48.656C40.592 48.472 40.688 48.288 40.792 48.096C40.888 47.904 40.968 47.704 41.024 47.504C41.28 46.648 41.544 45.736 41.816 44.776C42.088 43.816 42.368 42.88 42.64 41.968C42.912 41.056 43.184 40.232 43.44 39.496C43.44 39.424 43.392 39.36 43.304 39.304C43.192 39.248 43.152 39.168 43.168 39.056C42.64 39.04 42.104 38.96 41.56 38.824C41.024 38.688 40.536 38.472 40.104 38.176C39.672 37.88 38.52 37.048 38.336 36.592V36.592ZM50.68 49.416C50.152 48.784 49.528 48.224 49.184 47.52C49.36 46.704 49.832 46.184 50.216 45.576C50.6 44.968 51.032 44.392 51.512 43.848C51.992 43.304 52.696 42.536 53.096 41.92C52.696 41.92 52.04 42.168 51.696 42.272C51.344 42.376 51.008 42.48 50.688 42.584C50.216 42.76 49.768 42.888 49.352 42.968C48.936 43.056 48.52 42.96 48.104 42.688C48.184 42.304 48.36 42.008 48.632 41.8C48.904 41.6 49.192 41.416 49.504 41.264C49.816 41.104 50.064 40.888 50.24 40.616C51.032 40.256 51.888 40 52.816 39.848C53.744 39.696 54.616 39.592 55.44 39.536C55.456 39.536 55.48 39.544 55.496 39.56C55.768 39.72 56.064 39.904 56.368 40.112C56.672 40.32 56.92 40.552 57.104 40.8C57.288 41.048 57.344 41.336 57.28 41.64C57.2 41.992 56.952 42.256 56.536 42.432C56.12 42.616 55.632 42.76 55.072 42.88C54.512 43 53.968 43.128 53.448 43.264C52.928 43.4 52.096 43.608 51.8 43.848C51.264 44.296 50.864 44.808 50.608 45.384C50.352 45.96 50.896 46.56 51.408 47.208C51.792 47.672 52.296 48.056 52.912 48.352C53.528 48.656 54.168 48.92 54.816 49.152C55.472 49.384 56.024 49.624 56.472 49.872C56.592 50 56.696 50.136 56.792 50.28C56.888 50.416 57.048 50.496 57.28 50.504C57.208 50.64 57.184 50.792 57.2 50.952C57.216 51.112 57.312 51.208 57.488 51.24C57.376 51.416 57.216 51.544 57 51.624C56.784 51.696 56.536 51.744 56.272 51.752C55.68 51.776 55.024 51.68 54.312 51.456C53.6 51.24 53.04 51.04 52.632 50.864C51.872 50.512 51.224 50.016 50.696 49.384L50.68 49.416ZM54.44 35.488C54.016 35.144 53.696 34.696 53.48 34.16C53.264 33.624 52.968 33.016 53.112 32.56C53.608 32.76 54.344 33.08 54.808 33.304C55.272 33.536 55.672 33.832 56 34.192C56.328 34.56 56.512 35.072 56.552 35.728C56.184 35.952 55.824 36.024 55.456 35.952C55.088 35.88 54.752 35.72 54.44 35.488V35.488ZM49.408 67.048C49.408 67.136 49.368 67.24 49.288 67.352C49.208 67.464 49.104 67.6 48.984 67.736C48.824 67.912 48.664 68.112 48.496 68.336C48.328 68.56 48.208 68.8 48.136 69.064C48.064 68.888 48.104 68.672 48.256 68.416C48.408 68.16 48.6 67.904 48.832 67.648C49.064 67.392 49.256 67.192 49.416 67.048H49.408ZM68.472 68.912C68.472 68.912 68.504 68.832 68.512 68.776C68.52 68.72 68.512 68.656 68.496 68.56C68.056 68.24 67.608 67.976 67.152 67.76C66.704 67.544 66.32 67.208 66.024 66.752C65.776 66.344 65.6 65.896 65.504 65.408C65.408 64.92 65.288 64.44 65.16 63.96C65.024 63.48 64.784 63.072 64.432 62.736C64.288 62.608 64.168 62.552 64.064 62.552C63.96 62.552 63.856 62.56 63.768 62.576C63.68 62.592 63.616 62.6 63.584 62.6C63.336 63.04 63.184 63.6 63.136 64.272C63.08 64.944 62.968 65.648 62.792 66.376C62.4 66.232 61.928 66.112 61.384 66C60.84 65.888 60.272 65.792 59.696 65.696C59.12 65.6 58.592 65.496 58.104 65.376C57.616 65.264 57.232 65.112 56.944 64.936C57.136 64.864 57.272 64.696 57.344 64.432C57.416 64.168 57.44 63.944 57.424 63.768C57.584 63.784 57.696 63.76 57.768 63.688C57.712 63.528 57.728 63.384 57.808 63.248C57.888 63.112 57.992 62.976 58.112 62.832C58.2 62.728 58.288 62.616 58.368 62.512C58.448 62.408 58.504 62.28 58.544 62.136C58.544 62.104 58.536 62.04 58.52 61.952C58.488 61.848 58.472 61.776 58.496 61.736C58.568 61.616 58.672 61.504 58.816 61.408C58.96 61.312 59.064 61.192 59.136 61.048C59.28 60.768 59.44 60.456 59.616 60.128C59.792 59.8 59.928 59.52 60.016 59.288C60.176 58.88 60.184 58.456 60.04 58.008C59.896 57.568 59.648 57.192 59.28 56.88C58.92 56.568 58.488 56.432 57.992 56.464C57.848 56.48 57.656 56.552 57.416 56.68C57.176 56.808 56.936 56.904 56.688 56.976C56.656 56.976 56.608 56.984 56.552 57C56.024 57.144 55.488 57.272 54.96 57.384C54.432 57.496 53.72 57.128 53.096 57.104C53.064 57.192 53.08 57.264 53.152 57.32C53.208 57.376 53.232 57.424 53.232 57.48C53.04 57.464 52.896 57.528 52.808 57.664C53.376 58.056 54.088 58.88 54.68 59.296C55.272 59.712 56.008 59.968 56.872 60.056C56.432 61.032 56 62.024 55.6 63.032C55.192 64.04 54.688 64.936 54.088 65.72C53.736 65.824 53.376 65.936 53.024 66.048C52.672 66.168 52.32 66.296 51.984 66.432C52.04 66.272 52.2 66.152 52.472 66.064C52.744 65.976 53.032 65.88 53.336 65.784C53.64 65.688 53.832 65.568 53.92 65.424C53 65.552 52.144 65.84 51.352 66.304C50.56 66.768 49.912 67.232 49.4 67.712C49.4 67.68 49.432 67.624 49.496 67.552C49.56 67.48 49.64 67.408 49.752 67.336C49.872 67.208 50.008 67.08 50.136 66.952C50.272 66.816 50.336 66.68 50.336 66.536C50.176 66.752 49.992 66.944 49.792 67.12C49.584 67.296 49.392 67.48 49.192 67.68C48.928 67.928 48.688 68.192 48.488 68.48C48.288 68.76 48.168 69.112 48.128 69.52C48.112 69.664 48.128 69.824 48.184 70C48.24 70.176 48.296 70.36 48.368 70.56C48.44 70.776 48.512 71 48.584 71.24C48.656 71.48 48.688 71.72 48.688 71.968V72.392C48.688 72.656 48.688 72.904 48.704 73.12C48.712 73.344 48.752 73.584 48.824 73.848C48.944 73.864 49.048 73.92 49.12 74.008C49.192 74.096 49.264 74.176 49.336 74.248C49.408 74.248 49.448 74.208 49.472 74.112C49.504 74.008 49.552 73.96 49.608 73.976C49.8 74.048 49.992 74.048 50.184 73.992C50.368 73.928 50.56 73.84 50.752 73.712C51.072 73.52 51.384 73.272 51.696 72.968C52.008 72.664 52.288 72.4 52.536 72.168C52.432 72.096 52.408 72.032 52.48 71.984C52.64 71.928 52.728 71.864 52.744 71.784C52.76 71.704 52.784 71.624 52.824 71.528C52.856 71.44 52.984 71.376 53.2 71.344C53.256 71.24 53.224 71.176 53.12 71.16C53.032 71.128 53.008 71.064 53.04 70.976C53.096 71.048 53.152 71.072 53.216 71.04C53.28 71.016 53.344 70.976 53.416 70.92C53.488 70.864 53.536 70.832 53.576 70.816C53.592 70.784 53.584 70.712 53.552 70.6C53.536 70.544 53.52 70.488 53.512 70.424C53.504 70.36 53.512 70.304 53.528 70.248C53.56 70.16 53.688 70.056 53.904 69.928C54.12 69.8 54.256 69.704 54.328 69.632C54.168 69.616 54.112 69.576 54.168 69.528C54.488 69.208 54.76 68.872 54.992 68.504C55.224 68.144 55.472 67.768 55.736 67.376C56.744 67.144 57.808 67.128 58.912 67.32C60.016 67.512 61.056 67.736 62.008 67.984C62.112 68 62.208 68.024 62.304 68.048C62.392 68.072 62.48 68.096 62.568 68.112C62.192 69.584 61.712 70.912 61.12 72.096C60.528 73.28 58.304 74.592 57.488 75.528C58.392 75.224 59.12 75.088 59.672 75.104C59.688 74.96 59.76 74.84 59.888 74.744C60.016 74.648 61.672 74.304 61.832 74.192C62.024 74.072 62.2 73.928 62.36 73.784C62.52 73.632 62.584 73.448 62.544 73.24C62.576 73.208 62.64 73.216 62.728 73.264C62.8 73.32 62.848 73.32 62.888 73.264C63.136 72.664 63.4 71.936 63.672 71.096C63.944 70.256 64.2 69.44 64.432 68.664C64.928 68.88 65.432 69.08 65.936 69.264C66.44 69.448 66.976 69.616 67.544 69.752C67.632 69.696 67.632 69.616 67.544 69.512C67.488 69.44 67.496 69.4 67.568 69.376C67.64 69.376 67.744 69.384 67.888 69.4C68.032 69.416 68.168 69.424 68.312 69.416C68.456 69.408 68.552 69.352 68.608 69.24C68.536 69.152 68.504 69.08 68.504 69.016C68.504 68.952 68.512 68.896 68.528 68.84L68.472 68.912ZM49.224 71.016C49.208 70.888 49.248 70.736 49.36 70.536C49.464 70.344 49.6 70.16 49.76 70.008C49.92 69.848 50.056 69.752 50.176 69.712C50.288 69.68 50.336 69.76 50.32 69.952C50.16 70.008 50.016 70.112 49.896 70.272C49.768 70.432 49.664 70.584 49.568 70.736C49.472 70.888 49.36 70.976 49.232 71.016H49.224ZM52.272 69.048C52.088 69.296 51.896 69.552 51.696 69.816C51.888 69.848 51.912 69.976 51.752 70.192C51.72 70.192 51.688 70.128 51.672 70.008C51.352 70.312 51.072 70.656 50.832 71.056C50.592 71.456 50.296 71.792 49.944 72.08C49.856 72.024 49.768 71.976 49.68 71.936C49.592 71.896 49.512 71.832 49.44 71.76C49.584 71.176 49.8 70.68 50.088 70.288C50.384 69.888 50.712 69.552 51.088 69.264C51.264 69.12 51.48 68.968 51.736 68.816C51.992 68.656 52.328 68.456 52.736 68.208C52.608 68.528 52.456 68.808 52.272 69.056V69.048ZM64.992 66.816V66.976C64.904 67.064 64.8 67.048 64.672 66.92C64.616 66.848 64.6 66.728 64.616 66.552C64.632 66.376 64.56 65.792 64.6 65.688C64.728 65.688 64.944 66.096 64.992 66.256C65.048 66.472 64.976 66.68 64.992 66.824V66.816ZM54.232 86.312C54.16 85.384 53.96 84.576 53.64 83.904C53.312 83.232 52.96 82.608 52.576 82.048C52.192 81.488 51.864 80.896 51.6 80.28C52.6 80.4 53.488 80.76 54.256 81.36C55.032 81.96 55.664 82.696 56.168 83.584C56.672 84.472 57.008 85.424 57.192 86.44C57.376 87.456 57.384 88.456 57.208 89.44C57 89.512 56.776 89.56 56.552 89.6C56.328 89.64 56.088 89.672 55.84 89.704C55.528 89.56 55.28 89.36 55.104 89.088C54.928 88.816 54.76 88.536 54.6 88.256C54.44 87.976 54.248 87.736 54.008 87.528C53.768 87.328 53.424 87.224 52.968 87.224C53.056 87.048 53.184 86.928 53.352 86.856C53.52 86.784 53.688 86.712 53.848 86.648C54.016 86.576 54.144 86.464 54.232 86.304V86.312ZM39.536 89.944C38.96 88.992 38.52 87.92 38.232 86.72C37.944 85.52 37.744 84.28 37.624 83.008C37.512 81.736 37.408 80.512 37.32 79.336C37.44 79.408 37.608 79.568 37.824 79.808C38.032 80.056 38.224 80.248 38.4 80.384C38.856 80.736 39.28 81.096 39.68 81.464C40.072 81.832 40.304 82.392 40.376 83.152C40.376 83.224 40.368 83.296 40.352 83.376C40.336 83.456 40.32 83.528 40.296 83.6C40.28 83.672 40.264 83.744 40.24 83.808C40.224 83.88 40.216 83.952 40.216 84.016C40.216 84.192 40.232 84.368 40.272 84.544C40.304 84.72 40.344 84.896 40.376 85.072C40.448 85.352 40.504 85.632 40.544 85.912C40.584 86.192 40.592 86.488 40.56 86.808C40.72 87.088 40.84 87.4 40.912 87.728C40.992 88.064 41.096 88.376 41.216 88.68C41.464 88.648 41.68 88.576 41.872 88.472C42.064 88.368 42.24 88.256 42.4 88.128C42.736 87.832 43.016 87.488 43.24 87.104C43.472 86.72 43.728 86.368 44.032 86.048C44.088 86.208 44.016 86.432 43.832 86.736C43.648 87.032 43.456 87.336 43.264 87.632C43.176 87.752 43.096 87.872 43.024 87.976C42.952 88.08 42.896 88.176 42.84 88.264C43.136 88.248 43.304 88.328 43.336 88.504C43.48 88.472 43.544 88.416 43.536 88.336C43.528 88.256 43.552 88.208 43.6 88.192C43.672 88.176 43.72 88.224 43.76 88.352C43.832 88.368 43.896 88.304 43.968 88.168C44 88.112 44.04 88.064 44.088 88.008C44.128 87.952 44.2 87.928 44.288 87.928C44.256 88 44.232 88.08 44.224 88.168C44.216 88.256 44.2 88.344 44.184 88.432C44.184 88.576 44.168 88.688 44.144 88.776C44.12 88.864 44.048 88.888 43.944 88.856C43.928 88.944 43.968 89.016 44.072 89.064C44.104 89.08 44.136 89.104 44.168 89.128C44.192 89.152 44.2 89.208 44.184 89.296H43.944C43.96 89.856 43.912 90.32 43.8 90.696C43.688 91.064 43.504 91.504 43.256 92.016C43.096 92.048 42.864 92.048 42.544 92.016C42.232 91.984 41.928 91.912 41.632 91.816C41.344 91.72 41.144 91.608 41.04 91.488C40.968 91.384 40.752 91.184 40.384 90.896C40.016 90.608 39.728 90.296 39.512 89.96L39.536 89.944ZM43.552 87.688C43.704 87.488 43.8 87.32 43.856 87.2C43.944 87.32 43.944 87.48 43.856 87.664C43.768 87.848 43.656 87.992 43.528 88.096C43.4 88.2 43.288 88.208 43.2 88.12C43.288 88.032 43.408 87.888 43.552 87.688V87.688ZM62.272 115.064C61.736 114.824 61.176 114.64 60.584 114.504C59.992 114.368 59.432 114.24 58.92 114.136C58.704 114.432 58.4 114.632 58.016 114.744C57.632 114.856 57.208 114.912 56.752 114.92C56.296 114.928 55.856 114.936 55.432 114.936C55.232 114.936 55.04 114.936 54.872 114.92C54.696 114.912 54.536 114.92 54.392 114.936C54.432 114.792 54.448 114.624 54.448 114.44V113.176C54.448 112.936 54.472 112.728 54.528 112.544H55.632C56.384 112.56 57.192 112.552 58.064 112.52C58.936 112.48 59.728 112.344 60.44 112.104V111.968C60.44 111.912 60.44 111.84 60.456 111.76C60.464 111.68 60.456 111.576 60.44 111.44C59.928 111.184 59.328 110.984 58.64 110.832C57.952 110.688 57.344 110.68 56.808 110.808C56.864 110.824 56.912 110.856 56.944 110.904C56.984 110.952 56.96 110.984 56.888 111C56.648 110.944 56.424 110.92 56.216 110.928C56.008 110.936 55.792 110.952 55.568 110.968C55.4 110.968 55.232 110.976 55.056 110.992C54.88 111.008 54.704 111.008 54.52 110.992C54.576 110.776 54.624 110.552 54.656 110.328C54.696 110.112 54.704 109.84 54.68 109.528C55.208 109.44 55.664 109.384 56.04 109.36C56.416 109.344 56.784 109.304 57.152 109.248C57.52 109.192 57.832 109.224 58.104 109.344C58.368 109.464 58.616 109.584 58.832 109.712C59.072 109.88 59.304 110 59.536 110.08C59.768 110.16 60.032 110.12 60.344 109.952C60.328 109.624 60.352 109.344 60.424 109.128C59.872 108.336 59.288 107.584 58.68 106.872C58.064 106.16 57.28 105.608 56.328 105.224C56.584 105.136 56.864 105.08 57.168 105.072C57.472 105.064 57.768 105.056 58.064 105.056C58.488 105.056 58.872 105.04 59.232 105.016C59.592 104.992 59.872 104.872 60.072 104.672C60.016 104.432 59.864 104.208 59.616 103.984C59.368 103.768 59.088 103.568 58.776 103.408C58.464 103.24 58.16 103.16 57.872 103.16C57.688 103.16 57.528 103.208 57.392 103.296C57.256 103.384 57.08 103.464 56.856 103.512C56.12 103.696 55.304 103.816 54.408 103.872C53.512 103.928 52.608 103.96 51.712 103.968C50.816 103.976 49.984 104.008 49.224 104.048C48.464 104.096 47.848 104.192 47.368 104.336C47.424 103.984 47.472 103.728 47.52 103.568C47.568 103.4 47.608 103.2 47.64 102.96C48.376 102.72 49.256 102.552 50.296 102.448C51.328 102.344 52.376 102.264 53.416 102.184C54.384 102.096 55.368 102.016 56.36 101.968C57.352 101.912 58.288 101.864 59.168 101.832C59.368 102.032 59.552 102.152 59.72 102.192C59.888 102.232 60.096 102.232 60.352 102.192C60.568 101.84 60.728 101.456 60.816 101.024C60.904 100.592 60.992 100.168 61.08 99.744C61.16 99.32 61.288 98.936 61.464 98.592C61.64 98.248 61.896 97.984 62.248 97.824C62.304 97.968 62.432 98.024 62.632 97.992C62.832 97.952 62.976 97.904 63.072 97.824C62.776 96.96 62.232 96.328 61.432 95.928C60.632 95.528 59.696 95.264 58.616 95.16C58.448 95.36 58.264 95.544 58.064 95.712C57.272 95.728 56.464 95.752 55.632 95.768C54.8 95.784 53.944 95.84 53.064 95.936C52.808 95.952 52.544 95.976 52.28 96.008C52.016 96.032 51.744 96.072 51.472 96.104C50.576 96.192 49.664 96.272 48.752 96.336C47.832 96.4 46.952 96.384 46.112 96.296C46.024 96.28 45.928 96.256 45.824 96.24C45.72 96.224 45.616 96.192 45.504 96.16C45.192 96.088 44.864 96.04 44.512 96.008C44.16 95.984 43.88 96.104 43.656 96.376C43.672 96.504 43.712 96.584 43.768 96.624C43.824 96.664 43.88 96.76 43.936 96.928C43.92 96.968 43.88 96.984 43.824 96.984C43.768 96.984 43.72 96.976 43.688 96.96C43.592 96.944 43.584 96.96 43.664 97.016C43.776 97.328 43.912 97.608 44.088 97.856C44.264 98.104 44.432 98.328 44.6 98.528C44.816 98.8 45.016 99.072 45.176 99.336C45.344 99.6 45.424 99.912 45.44 100.272C45.448 100.632 45.344 101.064 45.12 101.576C45.472 102.624 45.568 103.536 45.424 104.312C45.28 105.088 45.072 105.856 44.816 106.608C44.672 107.032 44.528 107.464 44.4 107.912C44.28 108.328 44.2 108.76 44.144 109.216C44.168 109.152 44.216 109.12 44.288 109.136C44.248 109.208 44.208 109.28 44.152 109.36C44.096 109.432 44.04 109.504 43.984 109.576C43.84 109.792 43.704 110.024 43.584 110.248C43.464 110.48 43.432 110.72 43.488 110.976C43.616 111.032 43.672 110.992 43.656 110.864C43.656 110.752 43.696 110.696 43.768 110.696C43.624 111.08 43.512 111.368 43.44 111.56C43.368 111.752 43.296 111.896 43.216 112C43.144 112.104 43.04 112.24 42.912 112.424C43.024 112.384 43.096 112.392 43.144 112.44C43.192 112.488 43.224 112.544 43.24 112.616C43.256 112.656 43.28 112.68 43.296 112.696C43.224 112.68 43.168 112.72 43.128 112.832C43.112 112.928 43.072 112.968 43.016 112.968C43 112.928 43.016 112.864 43.072 112.776C43.088 112.72 43.096 112.672 43.096 112.64C43.096 112.608 43.032 112.584 42.904 112.584C42.904 112.728 42.888 112.848 42.864 112.944C42.84 113.04 42.808 113.128 42.768 113.216C42.728 113.256 42.704 113.296 42.688 113.352C42.672 113.408 42.648 113.464 42.632 113.52C42.616 113.52 42.576 113.504 42.52 113.464C42.448 113.408 42.36 113.392 42.272 113.408C42.416 113.608 42.44 113.84 42.344 114.112C42.24 114.376 42.096 114.512 41.888 114.512C41.976 114.512 42.016 114.576 42 114.704C41.744 114.648 41.552 114.704 41.44 114.856C41.32 115.008 41.216 115.192 41.12 115.392C41.064 115.488 41.016 115.568 40.968 115.656C40.92 115.736 40.872 115.816 40.816 115.888C40.832 115.888 40.864 115.88 40.896 115.864C40.984 115.848 41.072 115.84 41.144 115.84C41.216 115.84 41.264 115.912 41.28 116.056C41.224 116.096 41.12 116.12 40.976 116.136C40.864 116.152 40.76 116.184 40.656 116.232C40.552 116.28 40.488 116.4 40.448 116.6C40.52 116.64 40.584 116.64 40.64 116.6C40.696 116.56 40.744 116.528 40.776 116.488C40.864 116.4 40.944 116.408 40.992 116.512C40.752 116.6 40.576 116.728 40.472 116.88C40.36 117.04 40.256 117.184 40.144 117.336C40.032 117.48 39.856 117.6 39.624 117.696C39.752 117.736 39.824 117.76 39.832 117.776C39.84 117.792 39.832 117.824 39.816 117.856C39.8 117.896 39.776 117.944 39.76 118.008C39.744 118.072 39.76 118.152 39.816 118.24C40.072 118.2 40.256 118.104 40.368 117.952C40.48 117.792 40.6 117.656 40.728 117.528C40.744 117.616 40.784 117.664 40.856 117.664H41.032C41.088 117.648 41.12 117.648 41.144 117.664C41.16 117.68 41.144 117.752 41.088 117.88C41.2 117.824 41.304 117.712 41.416 117.552C41.528 117.384 41.664 117.232 41.832 117.088C42 116.944 42.208 116.872 42.464 116.872C42.464 116.704 42.512 116.544 42.616 116.376C42.72 116.208 42.824 116.056 42.936 115.912C43.064 115.744 43.168 115.584 43.256 115.432C43.336 115.272 43.352 115.128 43.296 114.976C43.224 114.992 43.16 115.056 43.12 115.152C43.072 115.256 43.032 115.36 42.992 115.472C42.92 115.64 42.832 115.792 42.744 115.936C42.656 116.08 42.504 116.136 42.304 116.104C42.632 115.832 42.816 115.536 42.84 115.224C42.864 114.912 42.984 114.576 43.184 114.208C43.184 114.28 43.248 114.328 43.376 114.344C43.504 114.36 43.568 114.416 43.568 114.512C43.528 114.528 43.48 114.592 43.4 114.688C43.328 114.792 43.344 114.848 43.456 114.864C44.352 113.344 45.104 111.736 45.696 110.04C46.288 108.344 46.832 106.552 47.304 104.664C47.544 105.016 47.832 105.264 48.168 105.424C48.504 105.584 48.888 105.688 49.312 105.744C49.736 105.8 50.176 105.872 50.632 105.96C50.592 106 50.536 106.064 50.464 106.152C50.152 106.536 49.8 106.944 49.408 107.36C49.016 107.784 48.568 108.096 48.072 108.296C47.576 108.496 47.048 108.472 46.48 108.216C46.568 108.384 46.664 108.552 46.752 108.728C46.84 108.904 46.936 109.072 47.024 109.24C47.48 109.664 47.984 109.888 48.536 109.912C49.088 109.936 49.656 109.936 50.24 109.896C50.312 109.896 50.384 109.896 50.448 109.88C50.512 109.872 50.584 109.864 50.656 109.864C50.952 109.696 51.256 109.616 51.576 109.616C51.896 109.616 52.176 109.688 52.416 109.832C52.584 110.16 52.632 110.568 52.584 111.04C51.52 111.168 50.464 111.272 49.408 111.36C48.352 111.44 47.376 111.496 46.48 111.512C46.904 112.176 47.416 112.616 48.024 112.848C48.632 113.08 49.32 113.16 50.088 113.096C50.856 113.032 51.68 112.912 52.56 112.728C52.544 112.968 52.536 113.192 52.544 113.4C52.552 113.608 52.56 113.808 52.56 113.992C52.576 114.192 52.584 114.384 52.584 114.552C52.584 114.72 52.568 114.872 52.528 114.976C51.792 114.992 51.064 115.04 50.344 115.112C49.616 115.184 48.936 115.256 48.296 115.328C47.856 115.368 47.432 115.432 47.032 115.536C46.632 115.64 46.232 115.688 45.848 115.688C45.776 115.688 45.688 115.68 45.584 115.664C45.48 115.648 45.384 115.624 45.296 115.608C45.04 115.568 44.784 115.552 44.528 115.552C44.272 115.552 44.072 115.688 43.92 115.968C44.064 115.952 44.208 116.04 44.336 116.232C44.464 116.424 44.552 116.568 44.608 116.656L44.632 116.712C44.632 116.712 44.704 116.736 44.8 116.736C44.968 116.736 45.064 116.752 45.104 116.792C45.472 117.088 45.896 117.32 46.368 117.496C46.848 117.672 47.312 117.728 47.768 117.672C48.224 117.616 48.608 117.416 48.92 117.064C49.104 117.104 49.264 117.104 49.4 117.064C49.536 117.024 49.664 116.992 49.768 116.952C49.88 116.912 49.96 116.888 50.016 116.872C50.472 116.76 50.944 116.696 51.416 116.664C51.896 116.64 52.384 116.624 52.904 116.624H53.632C53.88 116.624 54.128 116.616 54.392 116.6C54.536 116.6 54.696 116.592 54.872 116.576C55.048 116.56 55.224 116.552 55.408 116.552C55.976 116.496 56.592 116.456 57.248 116.424C57.904 116.4 58.496 116.4 59.008 116.44C59.208 116.456 59.416 116.48 59.624 116.512C59.832 116.536 60.056 116.568 60.296 116.608C60.904 116.696 61.496 116.768 62.08 116.816C62.664 116.864 63.096 116.768 63.376 116.528C63.336 116.432 63.352 116.352 63.4 116.28C63.44 116.208 63.456 116.136 63.456 116.064C63.184 115.624 62.776 115.288 62.248 115.048L62.272 115.064ZM47.984 98.04C48.216 98 48.48 97.984 48.792 97.984H49.112C49.232 97.984 49.352 97.976 49.48 97.96C49.936 97.92 50.4 97.88 50.856 97.84C51.312 97.792 51.784 97.744 52.256 97.688C53.248 97.56 54.248 97.456 55.264 97.376C56.28 97.296 57.304 97.304 58.328 97.416C58.456 97.744 58.512 98.08 58.504 98.408C58.496 98.736 58.48 99.072 58.464 99.4C58.448 99.568 58.424 99.736 58.408 99.912C58.392 100.088 58.392 100.256 58.408 100.424C58.296 100.44 58.208 100.44 58.144 100.424C58.08 100.408 58.032 100.376 57.992 100.344C57.88 100.272 57.784 100.232 57.688 100.232C56.68 100.376 55.584 100.504 54.4 100.616C53.216 100.728 52.032 100.816 50.856 100.88C49.672 100.944 48.576 101 47.568 101.056C47.552 100.632 47.52 100.2 47.488 99.76C47.448 99.32 47.416 98.872 47.376 98.416C47.544 98.216 47.736 98.096 47.968 98.056L47.984 98.04ZM51.216 108.24C51.416 107.712 51.696 107.256 52.056 106.88C52.416 106.504 52.656 106.08 52.784 105.6C53.752 105.344 54.592 105.4 55.288 105.768C55.656 105.952 55.968 106.224 56.224 106.576C56.48 106.936 56.672 107.344 56.8 107.8C55.904 107.984 54.992 108.064 54.064 108.032C53.136 108.008 52.192 108.072 51.216 108.24V108.24ZM44.12 109.256C44.12 109.256 44.136 109.24 44.136 109.224C44.136 109.264 44.12 109.296 44.12 109.336V109.256ZM12.36 64.256C11.704 64.256 10.752 64.296 10.2 64.304V64.784H10.432C10.792 64.784 10.8 64.912 10.8 65.264V67.968C10.8 68.488 10.736 68.592 10.24 68.592H10.096V69.072H10.848C11.248 69.072 11.92 69.088 12.368 69.088C14.208 69.088 14.984 67.984 14.984 66.568C14.984 65.08 14.096 64.256 12.36 64.256V64.256ZM12.488 68.576C12.4 68.576 12.232 68.56 12.128 68.536C11.88 68.488 11.792 68.392 11.792 68.024V64.84C11.912 64.824 12.048 64.816 12.192 64.816C13.296 64.816 13.88 65.392 13.88 66.768C13.88 68.024 13.32 68.576 12.488 68.576V68.576ZM19.824 64.304H21.72V64.784H21.488C21.144 64.784 21.096 64.928 21.096 65.376V67.424C21.096 68.568 20.28 69.136 19.208 69.136C18.024 69.136 17.304 68.456 17.304 67.16V65.336C17.304 64.864 17.256 64.784 16.936 64.784H16.752V64.304H19.184V64.784H18.88C18.384 64.784 18.32 64.84 18.32 65.336V67.296C18.32 68.176 18.704 68.576 19.464 68.576C20.224 68.576 20.584 68.176 20.584 67.368V65.376C20.584 64.944 20.56 64.784 20.088 64.784H19.84V64.304H19.824ZM29.512 68.592H29.784V69.072H27.352V68.592H27.632C27.896 68.592 28.064 68.576 28.064 68.184C28.064 67.952 27.984 66.296 27.944 65.232L26.624 69.048H25.936L24.576 65.224C24.56 66.288 24.552 68.024 24.552 68.144C24.552 68.552 24.648 68.6 25.048 68.6H25.24V69.08H23.272V68.6H23.352C23.888 68.6 23.952 68.488 24 67.56C24.048 66.552 24.08 65.6 24.08 65.128C24.08 64.88 24.016 64.792 23.776 64.792H23.408V64.312H25.352C25.352 64.52 25.504 64.976 25.584 65.2C25.952 66.224 26.184 66.888 26.536 67.84C26.872 66.888 27.12 66.136 27.416 65.24C27.552 64.808 27.616 64.584 27.616 64.312H29.608V64.792H29.28C29.04 64.792 28.896 64.856 28.896 65.16C28.896 65.384 29.008 67.088 29.08 68.048C29.12 68.544 29.216 68.592 29.52 68.592H29.512ZM36.056 68.184C36.056 67.952 35.976 66.296 35.936 65.232L34.616 69.048H33.928L32.568 65.224C32.552 66.288 32.544 68.024 32.544 68.144C32.544 68.552 32.64 68.6 33.04 68.6H33.232V69.08H31.264V68.6H31.344C31.88 68.6 31.944 68.488 31.992 67.56C32.04 66.552 32.072 65.6 32.072 65.128C32.072 64.88 32.008 64.792 31.768 64.792H31.4V64.312H33.344C33.344 64.52 33.496 64.976 33.576 65.2C33.944 66.224 34.176 66.888 34.528 67.84C34.864 66.888 35.112 66.136 35.408 65.24C35.544 64.808 35.608 64.584 35.608 64.312H37.608V64.792H37.28C37.04 64.792 36.896 64.856 36.896 65.16C36.896 65.384 37.008 67.088 37.08 68.048C37.12 68.544 37.216 68.592 37.52 68.592H37.792V69.072H35.36V68.592H35.64C35.904 68.592 36.072 68.576 36.072 68.184H36.056ZM41.664 67.296V68.256C41.664 68.56 41.688 68.592 41.936 68.592H42.392V69.072H39.944V68.592H40.4C40.64 68.592 40.672 68.552 40.672 68.256V67.288C40.248 66.464 39.84 65.68 39.6 65.232C39.368 64.808 39.328 64.792 39.056 64.792H38.976V64.312H41.176V64.792H40.856C40.64 64.792 40.552 64.816 40.552 64.944C40.552 65.016 40.568 65.096 40.656 65.288C40.776 65.56 41.112 66.32 41.408 66.936C41.712 66.288 41.984 65.72 42.12 65.384C42.232 65.096 42.264 65.016 42.264 64.904C42.264 64.832 42.232 64.792 42.072 64.792H41.672V64.312H43.344V64.792H43.232C43.04 64.792 43 64.808 42.744 65.256C42.392 65.88 42.024 66.6 41.68 67.304L41.664 67.296ZM41.344 15.96C41.872 13.528 45.784 10.656 52.52 10.656C62.08 10.656 72.68 16.776 65.768 23.688C62.976 26.304 57.312 26.936 53.976 22.048C50.544 16.32 40.808 18.976 41.344 15.968V15.96Z" fill="#1D1A1A"/>
</g>
<defs>
<clipPath id="clip0_564_424">
<rect width="104" height="128" fill="white"/>
</clipPath>
</defs>
</svg>
